<svg width="109" height="139" viewBox="0 0 109 139" fill="none" xmlns="http://www.w3.org/2000/svg">
<path d="M22.0525 3C-27.6532 56.0191 40.8704 139.989 105.052 86L22.0525 3Z" fill="#97C93E"/>
<path d="M81.0525 136L73.5525 115H55.3025H37.0525L30.5525 136H81.0525Z" fill="#97C93E"/>
<path d="M89.0525 31C83.9762 34.6418 81.1288 34.7329 76.0525 31C73.5807 26.6485 73.2195 24.2161 76.0525 19.5C80.6228 15.5229 83.4426 15.5369 89.0525 19.5C90.9715 23.623 91.1859 26.2749 89.0525 31Z" fill="#97C93E"/>
<path d="M55.3025 115H37.0525L30.5525 136H81.0525L73.5525 115H55.3025ZM55.3025 115V110.5M76.0525 31C81.1288 34.7329 83.9762 34.6418 89.0525 31C91.1859 26.2749 90.9715 23.623 89.0525 19.5C83.4426 15.5369 80.6228 15.5229 76.0525 19.5C73.2195 24.2161 73.5807 26.6485 76.0525 31ZM76.0525 31L70.0525 38M14.5525 46C15.7608 60.5193 19.1168 67.7957 29.0525 79.5M14.5525 36.5C14.9365 31.77 15.8101 29.2517 18.5525 25M22.0525 3C-27.6532 56.0191 40.8704 139.989 105.052 86L22.0525 3Z" stroke="#121F3D" stroke-width="6" stroke-linecap="round" stroke-linejoin="round"/>
</svg>
