<svg width="46" height="46" viewBox="0 0 46 46" fill="none" xmlns="http://www.w3.org/2000/svg">
<path fill-rule="evenodd" clip-rule="evenodd" d="M0.78122 28.999C-0.21483 27.2738 0.276574 25.0732 1.9119 23.9356L32.6568 2.5476C34.4702 1.28609 36.9718 1.81433 38.1204 3.70129L43.5386 12.6029C44.7209 14.5453 43.9621 17.0841 41.9077 18.0591L7.86349 34.2157C6.05884 35.0722 3.899 34.3992 2.90022 32.6693L0.78122 28.999ZM10.8703 21.2058L25.9003 10.7501L31.3753 19.8752L14.6773 27.7997L10.8703 21.2058ZM8.50183 22.8535L3.55371 26.2957C3.14488 26.5801 3.02203 27.1302 3.27104 27.5615L5.39004 31.2318C5.63973 31.6642 6.17969 31.8325 6.63086 31.6184L12.0715 29.0364L8.50183 22.8535ZM33.985 18.6367L28.2657 9.10456L34.2987 4.9077C34.752 4.59232 35.3774 4.72438 35.6645 5.19612L41.0828 14.0977C41.3783 14.5833 41.1886 15.218 40.675 15.4617L33.985 18.6367Z" fill="white"/>
<path d="M32.8801 43.835C33.5484 43.4065 33.7428 42.5174 33.3143 41.849L25.6476 29.8913C25.262 29.2898 24.493 29.0628 23.8426 29.3585L18.5717 31.7543C18.3228 31.8674 18.1114 32.0492 17.9621 32.2783L11.7331 41.8404C11.2997 42.5056 11.4877 43.3961 12.1529 43.8295C12.8181 44.2628 13.7087 44.0748 14.142 43.4096L20.1426 34.1983L21.121 33.7536V44.563C21.121 45.3569 21.7646 46.0005 22.5585 46.0005C23.3524 46.0005 23.996 45.3569 23.996 44.563V32.6418L30.894 43.4007C31.3225 44.069 32.2117 44.2635 32.8801 43.835Z" fill="white"/>
</svg>
