<svg width="44" height="44" viewBox="0 0 44 44" fill="none" xmlns="http://www.w3.org/2000/svg">
<path fill-rule="evenodd" clip-rule="evenodd" d="M2.77346 3.59233C3.53019 2.92569 4.61161 2.77471 5.52199 3.2086L40.9695 20.1033C41.7009 20.4518 42.1667 21.1898 42.1667 22C42.1667 22.8102 41.7009 23.5482 40.9695 23.8968L5.52199 40.7914C4.61162 41.2253 3.53019 41.0743 2.77346 40.4077C2.12375 39.8353 1.8136 38.9693 1.9522 38.1146L4.56538 22L1.9522 5.88538C1.8136 5.03067 2.12375 4.1647 2.77346 3.59233ZM7.12833 23.375L4.73742 38.119L38.5574 22L4.73742 5.88104L7.12833 20.625L20.625 20.625C21.3844 20.625 22 21.2406 22 22C22 22.7594 21.3844 23.375 20.625 23.375L7.12833 23.375Z" fill="white"/>
</svg>
