<svg width="100" height="100" viewBox="0 0 100 100" fill="none" xmlns="http://www.w3.org/2000/svg">
<path d="M64.5478 59.7637L60.1491 64.1006L71.1491 75.1006L82.1491 86.1006L86.6491 81.6006L91.6491 76.6006L80.6491 65.6006L69.5175 54.7338L64.5478 59.7637Z" fill="black"/>
<path d="M86.6491 81.6006L64.5478 59.7637M64.5478 59.7637L60.1491 64.1006L71.1491 75.1006M64.5478 59.7637L69.5175 54.7338L80.6491 65.6006M80.6491 65.6006L91.6491 76.6006L82.1491 86.1006L71.1491 75.1006M80.6491 65.6006L71.1491 75.1006" stroke="currentColor" stroke-width="1.5"/>
<path d="M18.3767 14.0117L13.978 18.3487L24.978 29.3487L35.978 40.3487L40.478 35.8487L45.478 30.8487L34.478 19.8487L23.3465 8.98183L18.3767 14.0117Z" fill="#black"/>
<path d="M40.478 35.8487L18.3767 14.0117M18.3767 14.0117L13.978 18.3487L24.978 29.3487M18.3767 14.0117L23.3465 8.98183L34.478 19.8487M34.478 19.8487L45.478 30.8487L35.978 40.3487L24.978 29.3487M34.478 19.8487L24.978 29.3487" stroke="currentColor" stroke-width="1.5"/>
<path d="M53.562 34.9492L53.5626 34.9498L65.0578 46.5014C65.0578 46.5014 65.0578 46.5014 65.0579 46.5015C65.982 47.4332 66.5 48.6903 66.5 50C66.5 51.3096 65.9821 52.5666 65.0581 53.4983C65.058 53.4984 65.0579 53.4985 65.0578 53.4986L53.561 65.0518L53.5604 65.0524C53.1058 65.5109 52.5643 65.875 51.9674 66.1235C51.3705 66.372 50.73 66.5 50.083 66.5C49.436 66.5 48.7955 66.372 48.1986 66.1235C47.6017 65.875 47.0602 65.5109 46.6056 65.0524L46.6049 65.0517L43.1235 61.5537L46.2522 58.4087L49.7302 61.9033L50.0846 62.2594L50.439 61.9033L61.9363 50.3511L62.2873 49.9984L61.9363 49.6457L50.439 38.0936L50.0846 37.7375L49.7302 38.0936L42.0653 45.795L41.7142 46.1477L42.0653 46.5004L49.3791 53.8492L46.2521 56.9911L46.252 56.991L38.9422 49.6463C38.0181 48.7146 37.5 47.4574 37.5 46.1477C37.5 44.838 38.0181 43.5808 38.9422 42.6491L46.6065 34.9483L46.6072 34.9476C47.0618 34.4891 47.6032 34.125 48.2002 33.8765C48.7971 33.628 49.4376 33.5 50.0846 33.5C50.7315 33.5 51.372 33.628 51.969 33.8765M53.562 34.9492L51.969 33.8765M53.562 34.9492C53.1069 34.4902 52.5653 34.1248 51.969 33.8765M53.562 34.9492L52.1611 33.4149L51.969 33.8765" fill="currentColor" stroke="black"/>
<path d="M60 40L67 33" stroke="currentColor" stroke-width="1.5"/>
<path d="M70.3125 33.4828L66.4928 29.7869M74.8069 33.7081L66.693 25.7919" stroke="currentColor" stroke-width="1.5"/>
</svg>
