<svg width="100" height="100" viewBox="0 0 100 100" fill="none" xmlns="http://www.w3.org/2000/svg">
<path d="M35.4522 59.7637L39.8509 64.1006L28.8509 75.1006L17.8509 86.1006L13.3509 81.6006L8.35089 76.6006L19.3509 65.6006L30.4825 54.7338L35.4522 59.7637Z" fill="black"/>
<path d="M13.3509 81.6006L35.4522 59.7637M35.4522 59.7637L39.8509 64.1006L28.8509 75.1006M35.4522 59.7637L30.4825 54.7338L19.3509 65.6006M19.3509 65.6006L8.35089 76.6006L17.8509 86.1006L28.8509 75.1006M19.3509 65.6006L28.8509 75.1006" stroke="white" stroke-width="1.5"/>
<path d="M81.6233 14.0117L86.022 18.3487L75.022 29.3487L64.022 40.3487L59.522 35.8487L54.522 30.8487L65.522 19.8487L76.6535 8.98183L81.6233 14.0117Z" fill="#070707"/>
<path d="M59.522 35.8487L81.6233 14.0117M81.6233 14.0117L86.022 18.3487L75.022 29.3487M81.6233 14.0117L76.6535 8.98183L65.522 19.8487M65.522 19.8487L54.522 30.8487L64.022 40.3487L75.022 29.3487M65.522 19.8487L75.022 29.3487" stroke="white" stroke-width="1.5"/>
<path d="M46.438 34.9492L46.4374 34.9498L34.9422 46.5014C34.9422 46.5014 34.9422 46.5014 34.9421 46.5015C34.018 47.4332 33.5 48.6903 33.5 50C33.5 51.3096 34.0179 52.5666 34.9419 53.4983C34.942 53.4984 34.9421 53.4985 34.9422 53.4986L46.439 65.0518L46.4396 65.0524C46.8942 65.5109 47.4357 65.875 48.0326 66.1235C48.6295 66.372 49.27 66.5 49.917 66.5C50.564 66.5 51.2045 66.372 51.8014 66.1235C52.3983 65.875 52.9398 65.5109 53.3944 65.0524L53.3951 65.0517L56.8765 61.5537L53.7478 58.4087L50.2698 61.9033L49.9154 62.2594L49.561 61.9033L38.0637 50.3511L37.7127 49.9984L38.0637 49.6457L49.561 38.0936L49.9154 37.7375L50.2698 38.0936L57.9347 45.795L58.2858 46.1477L57.9347 46.5004L50.6209 53.8492L53.7479 56.9911L53.748 56.991L61.0578 49.6463C61.9819 48.7146 62.5 47.4574 62.5 46.1477C62.5 44.838 61.9819 43.5808 61.0578 42.6491L53.3935 34.9483L53.3928 34.9476C52.9382 34.4891 52.3968 34.125 51.7998 33.8765C51.2029 33.628 50.5624 33.5 49.9154 33.5C49.2685 33.5 48.628 33.628 48.031 33.8765M46.438 34.9492L48.031 33.8765M46.438 34.9492C46.8931 34.4902 47.4347 34.1248 48.031 33.8765M46.438 34.9492L47.8389 33.4149L48.031 33.8765" fill="white" stroke="black"/>
<path d="M40 40L33 33" stroke="white" stroke-width="1.5"/>
<path d="M29.6875 33.4828L33.5072 29.7869M25.1931 33.7081L33.307 25.7919" stroke="white" stroke-width="1.5"/>
</svg>
