<svg width="100" height="100" viewBox="0 0 100 100" fill="none" xmlns="http://www.w3.org/2000/svg">
<g clip-path="url(#clip0_4_31)">
<path d="M66.6665 46.0163L66.6432 52.1934L82.1995 52.1421L97.7558 52.0909L97.7348 45.727L97.7115 38.6559L82.1552 38.7072L66.6007 38.9456L66.6665 46.0163Z" fill="black"/>
<path d="M97.7348 45.727L66.6665 46.0163M66.6665 46.0163L66.6432 52.1934L82.1995 52.1421M66.6665 46.0163L66.6007 38.9456L82.1552 38.7072M82.1552 38.7072L97.7115 38.6559L97.7558 52.0909L82.1995 52.1421M82.1552 38.7072L82.1995 52.1421" stroke="white" stroke-width="1.5"/>
<path d="M1.66849 46.5267L1.64517 52.7039L17.2014 52.6526L32.7577 52.6014L32.7367 46.2374L32.7134 39.1664L17.1572 39.2177L1.60265 39.4561L1.66849 46.5267Z" fill="#070707"/>
<path d="M32.7367 46.2374L1.66849 46.5267M1.66849 46.5267L1.64517 52.7039L17.2014 52.6526M1.66849 46.5267L1.60265 39.4561L17.1572 39.2177M17.1572 39.2177L32.7134 39.1664L32.7577 52.6014L17.2014 52.6526M17.1572 39.2177L17.2014 52.6526" stroke="white" stroke-width="1.5"/>
<path d="M41.3197 36.3214L41.3206 36.3214L57.6172 36.3076C57.6173 36.3076 57.6173 36.3076 57.6173 36.3076C58.9296 36.3086 60.1866 36.8271 61.1157 37.7501C62.0447 38.6731 62.5715 39.9264 62.5813 41.2385C62.5813 41.2387 62.5813 41.2388 62.5813 41.239L62.6749 57.5375L62.6749 57.5384C62.6797 58.1841 62.5564 58.8248 62.312 59.4234C62.0676 60.0221 61.707 60.5667 61.2511 61.0256C60.7951 61.4846 60.2529 61.8488 59.6559 62.0972C59.0589 62.3455 58.419 62.473 57.7733 62.4724L57.7724 62.4724L52.8371 62.4769L52.811 58.0408L57.7414 58.0363L58.2437 58.0359L58.2409 57.5335L58.1484 41.2352L58.1456 40.7376L57.648 40.7381L41.3495 40.753L40.8471 40.7535L40.8499 41.2558L40.9116 52.1213L40.9144 52.619L41.412 52.6185L51.7801 52.609L51.8052 57.0418L51.8051 57.0418L41.4428 57.0512C40.1305 57.0502 38.8735 56.5317 37.9443 55.6087C37.0152 54.6856 36.4884 53.4321 36.4787 52.1198L36.4171 41.2551L36.4171 41.2542C36.4122 40.6086 36.5355 39.9678 36.7799 39.3692C37.0243 38.7706 37.3849 38.226 37.8409 37.767C38.2969 37.308 38.8391 36.9438 39.4361 36.6955M41.3197 36.3214L39.4361 36.6955M41.3197 36.3214C40.6734 36.3208 40.0325 36.4474 39.4361 36.6955M41.3197 36.3214L39.244 36.2338L39.4361 36.6955" fill="white" stroke="black"/>
<path d="M49.4403 35.3137L49.4077 25.4143" stroke="white" stroke-width="1.5"/>
<path d="M52.0848 23.4045L46.7708 23.5096M55.4122 20.3748L44.0778 20.5519" stroke="white" stroke-width="1.5"/>
</g>
<defs>
<clipPath id="clip0_4_31">
<rect width="100" height="100" fill="white" transform="matrix(-1 0 0 1 100 0)"/>
</clipPath>
</defs>
</svg>
