<svg width="44" height="44" viewBox="0 0 44 44" fill="none" xmlns="http://www.w3.org/2000/svg">
<path d="M37.5564 4.61008C37.0194 4.07311 36.1488 4.07311 35.6118 4.61008C35.0748 5.14705 35.0748 6.01765 35.6118 6.55462C39.0969 10.0397 41.25 14.8503 41.25 20.1664C41.25 25.4826 39.0969 30.2932 35.6118 33.7782C35.0748 34.3152 35.0748 35.1858 35.6118 35.7228C36.1488 36.2598 37.0194 36.2598 37.5564 35.7228C41.5361 31.7431 44 26.2412 44 20.1664C44 14.0917 41.5361 8.58979 37.5564 4.61008Z" fill="currentColor"/>
<path d="M8.3882 6.55462C8.92517 6.01765 8.92517 5.14705 8.3882 4.61008C7.85122 4.07311 6.98062 4.07311 6.44365 4.61008C2.46394 8.58979 0 14.0917 0 20.1664C0 26.2412 2.46394 31.7431 6.44365 35.7228C6.98062 36.2598 7.85122 36.2598 8.3882 35.7228C8.92517 35.1858 8.92517 34.3152 8.3882 33.7782C4.90312 30.2932 2.75 25.4826 2.75 20.1664C2.75 14.8503 4.90312 10.0397 8.3882 6.55462Z" fill="currentColor"/>
<path d="M14.87 13.0364C15.407 12.4995 15.407 11.6289 14.87 11.0919C14.333 10.5549 13.4624 10.5549 12.9255 11.0919C10.6046 13.4128 9.16667 16.623 9.16667 20.1664C9.16667 23.7099 10.6046 26.9201 12.9255 29.241C13.4624 29.7779 14.333 29.7779 14.87 29.241C15.407 28.704 15.407 27.8334 14.87 27.2964C13.0438 25.4702 11.9167 22.9512 11.9167 20.1664C11.9167 17.3816 13.0438 14.8627 14.87 13.0364Z" fill="currentColor"/>
<path d="M31.0745 11.0919C30.5376 10.5549 29.667 10.5549 29.13 11.0919C28.593 11.6289 28.593 12.4995 29.13 13.0364C30.9562 14.8627 32.0833 17.3816 32.0833 20.1664C32.0833 22.9512 30.9562 25.4702 29.13 27.2964C28.593 27.8334 28.593 28.704 29.13 29.241C29.667 29.7779 30.5376 29.7779 31.0745 29.241C33.3954 26.9201 34.8333 23.7099 34.8333 20.1664C34.8333 16.623 33.3954 13.4128 31.0745 11.0919Z" fill="currentColor"/>
<path d="M25.6667 20.1667C25.6667 21.7055 24.7188 23.0229 23.375 23.5668V38.9583C23.375 39.7177 22.7594 40.3333 22 40.3333C21.2406 40.3333 20.625 39.7177 20.625 38.9583V23.5668C19.2812 23.0229 18.3333 21.7055 18.3333 20.1667C18.3333 18.1416 19.975 16.5 22 16.5C24.025 16.5 25.6667 18.1416 25.6667 20.1667Z" fill="currentColor"/>
</svg>
