<svg width="33" height="33" viewBox="0 0 33 33" fill="none" xmlns="http://www.w3.org/2000/svg">
<g clip-path="url(#clip0_39_489)">
<path d="M6.67642 0.712219C-8.3721 13.2995 12.3736 33.2348 31.8047 20.4173L6.67642 0.712219Z" fill="#FFFFFF"/>
<path d="M24.5388 32.2878L22.2682 27.3022H16.743H11.2177L9.24985 32.2878H24.5388Z" fill="#FFFFFF"/>
<path d="M26.9609 7.35973C25.424 8.22433 24.5619 8.24596 23.0251 7.35973C22.2767 6.32664 22.1674 5.74916 23.0251 4.62951C24.4087 3.68531 25.2625 3.68863 26.9609 4.62951C27.5418 5.60836 27.6068 6.23794 26.9609 7.35973Z" fill="#FFFFFF"/>
<path d="M16.7429 27.3021H11.2177L9.24981 32.2878H24.5388L22.2682 27.3021H16.7429ZM16.7429 27.3021V26.2338M23.025 7.3597C24.5619 8.24593 25.424 8.2243 26.9608 7.3597C27.6067 6.23791 27.5418 5.60833 26.9608 4.62949C25.2624 3.68861 24.4087 3.68528 23.025 4.62949C22.1673 5.74914 22.2767 6.32661 23.025 7.3597ZM23.025 7.3597L21.2085 9.02157M4.40578 10.9209C4.77159 14.3679 5.78763 16.0954 8.79569 18.8741M4.40578 8.66546C4.52203 7.54251 4.78652 6.94464 5.61679 5.93524M6.67642 0.712219C-8.3721 13.2995 12.3736 33.2348 31.8047 20.4173L6.67642 0.712219Z" stroke="#121F3D" stroke-width="1.5" stroke-linecap="round" stroke-linejoin="round"/>
</g>
<defs>
<clipPath id="clip0_39_489">
<rect width="33" height="33" fill="white"/>
</clipPath>
</defs>
</svg>
